<?xml version="1.0" encoding="UTF-8" standalone="no"?>
<!DOCTYPE svg PUBLIC "-//W3C//DTD SVG 1.1//EN"
 "http://www.w3.org/Graphics/SVG/1.1/DTD/svg11.dtd">
<!-- Generated by graphviz version 2.47.0 (20210316.0004)
 -->
<!-- Title: dependencies Pages: 1 -->
<svg width="1623pt" height="284pt"
 viewBox="0.00 0.00 1623.00 284.00" xmlns="http://www.w3.org/2000/svg" xmlns:xlink="http://www.w3.org/1999/xlink">
<g id="graph0" class="graph" transform="scale(1 1) rotate(0) translate(4 280)">
<title>dependencies</title>
<polygon fill="white" stroke="transparent" points="-4,4 -4,-280 1619,-280 1619,4 -4,4"/>
<text text-anchor="start" x="786.51" y="-42.4" font-family="Times-12" font-weight="bold" font-size="14.00">Legend</text>
<polygon fill="#ffffb3" stroke="transparent" points="573.5,-10 573.5,-30 593.5,-30 593.5,-10 573.5,-10"/>
<text text-anchor="start" x="597.13" y="-15.4" font-family="Times-12" font-size="14.00"> &#160;Declarations</text>
<polygon fill="#8dd3c7" stroke="transparent" points="686.5,-10 686.5,-30 706.5,-30 706.5,-10 686.5,-10"/>
<text text-anchor="start" x="710.23" y="-15.4" font-family="Times-12" font-size="14.00"> &#160;Module</text>
<polygon fill="#80b1d3" stroke="transparent" points="772.5,-10 772.5,-30 792.5,-30 792.5,-10 772.5,-10"/>
<text text-anchor="start" x="796.28" y="-15.4" font-family="Times-12" font-size="14.00"> &#160;Bootstrap</text>
<polygon fill="#fdb462" stroke="transparent" points="869.5,-10 869.5,-30 889.5,-30 889.5,-10 869.5,-10"/>
<text text-anchor="start" x="893.17" y="-15.4" font-family="Times-12" font-size="14.00"> &#160;Providers</text>
<polygon fill="#fb8072" stroke="transparent" points="965.5,-10 965.5,-30 985.5,-30 985.5,-10 965.5,-10"/>
<text text-anchor="start" x="989.23" y="-15.4" font-family="Times-12" font-size="14.00"> &#160;Exports</text>
<g id="clust1" class="cluster">
<title>cluster_AppModule</title>
<polygon fill="none" stroke="black" stroke-dasharray="1,5" points="8,-70 8,-268 1607,-268 1607,-70 8,-70"/>
</g>
<g id="clust2" class="cluster">
<title>cluster_AppModule_declarations</title>
<polygon fill="none" stroke="black" points="1477,-78 1477,-130 1599,-130 1599,-78 1477,-78"/>
</g>
<g id="clust6" class="cluster">
<title>cluster_AppModule_bootstrap</title>
<polygon fill="none" stroke="black" points="752,-208 752,-260 876,-260 876,-208 752,-208"/>
</g>
<g id="clust4" class="cluster">
<title>cluster_AppModule_imports</title>
<polygon fill="none" stroke="black" points="16,-78 16,-130 1469,-130 1469,-78 16,-78"/>
</g>
<!-- AppComponent -->
<g id="node1" class="node">
<title>AppComponent</title>
<polygon fill="#ffffb3" stroke="black" points="1590.94,-122 1485.06,-122 1485.06,-86 1590.94,-86 1590.94,-122"/>
<text text-anchor="middle" x="1538" y="-99.8" font-family="Times,serif" font-size="14.00">AppComponent</text>
</g>
<!-- AppModule -->
<g id="node2" class="node">
<title>AppModule</title>
<polygon fill="#8dd3c7" stroke="black" points="855.66,-187 852.66,-191 831.66,-191 828.66,-187 772.34,-187 772.34,-151 855.66,-151 855.66,-187"/>
<text text-anchor="middle" x="814" y="-164.8" font-family="Times,serif" font-size="14.00">AppModule</text>
</g>
<!-- AppComponent&#45;&gt;AppModule -->
<g id="edge1" class="edge">
<title>AppComponent&#45;&gt;AppModule</title>
<path fill="none" stroke="black" d="M1538,-122.25C1538,-145.02 1538,-181 1538,-181 1538,-181 865.79,-181 865.79,-181"/>
<polygon fill="black" stroke="black" points="865.79,-177.5 855.79,-181 865.79,-184.5 865.79,-177.5"/>
</g>
<!-- AppComponent  -->
<g id="node13" class="node">
<title>AppComponent </title>
<polygon fill="#80b1d3" stroke="black" points="868.44,-252 759.56,-252 759.56,-216 868.44,-216 868.44,-252"/>
<text text-anchor="middle" x="814" y="-229.8" font-family="Times,serif" font-size="14.00">AppComponent </text>
</g>
<!-- AppModule&#45;&gt;AppComponent  -->
<g id="edge12" class="edge">
<title>AppModule&#45;&gt;AppComponent </title>
<path fill="none" stroke="black" stroke-dasharray="1,5" d="M814,-187.11C814,-187.11 814,-205.99 814,-205.99"/>
<polygon fill="black" stroke="black" points="810.5,-205.99 814,-215.99 817.5,-205.99 810.5,-205.99"/>
</g>
<!-- AppRoutingModule -->
<g id="node3" class="node">
<title>AppRoutingModule</title>
<polygon fill="#8dd3c7" stroke="black" points="1461.27,-122 1458.27,-126 1437.27,-126 1434.27,-122 1332.73,-122 1332.73,-86 1461.27,-86 1461.27,-122"/>
<text text-anchor="middle" x="1397" y="-99.8" font-family="Times,serif" font-size="14.00">AppRoutingModule</text>
</g>
<!-- AppRoutingModule&#45;&gt;AppModule -->
<g id="edge2" class="edge">
<title>AppRoutingModule&#45;&gt;AppModule</title>
<path fill="none" stroke="black" d="M1397,-122.28C1397,-143.32 1397,-175 1397,-175 1397,-175 865.93,-175 865.93,-175"/>
<polygon fill="black" stroke="black" points="865.93,-171.5 855.93,-175 865.93,-178.5 865.93,-171.5"/>
</g>
<!-- DatePipeComponent -->
<g id="node4" class="node">
<title>DatePipeComponent</title>
<polygon fill="#8dd3c7" stroke="black" points="1314.15,-122 1311.15,-126 1290.15,-126 1287.15,-122 1181.85,-122 1181.85,-86 1314.15,-86 1314.15,-122"/>
<text text-anchor="middle" x="1248" y="-99.8" font-family="Times,serif" font-size="14.00">DatePipeComponent</text>
</g>
<!-- DatePipeComponent&#45;&gt;AppModule -->
<g id="edge3" class="edge">
<title>DatePipeComponent&#45;&gt;AppModule</title>
<path fill="none" stroke="black" d="M1248,-122.11C1248,-141.34 1248,-169 1248,-169 1248,-169 866.01,-169 866.01,-169"/>
<polygon fill="black" stroke="black" points="866.01,-165.5 856.01,-169 866.01,-172.5 866.01,-165.5"/>
</g>
<!-- FooterComponent -->
<g id="node5" class="node">
<title>FooterComponent</title>
<polygon fill="#8dd3c7" stroke="black" points="1163.88,-122 1160.88,-126 1139.88,-126 1136.88,-122 1046.12,-122 1046.12,-86 1163.88,-86 1163.88,-122"/>
<text text-anchor="middle" x="1105" y="-99.8" font-family="Times,serif" font-size="14.00">FooterComponent</text>
</g>
<!-- FooterComponent&#45;&gt;AppModule -->
<g id="edge4" class="edge">
<title>FooterComponent&#45;&gt;AppModule</title>
<path fill="none" stroke="black" d="M1105,-122.02C1105,-139.37 1105,-163 1105,-163 1105,-163 865.69,-163 865.69,-163"/>
<polygon fill="black" stroke="black" points="865.69,-159.5 855.69,-163 865.69,-166.5 865.69,-159.5"/>
</g>
<!-- HomeComponent -->
<g id="node6" class="node">
<title>HomeComponent</title>
<polygon fill="#8dd3c7" stroke="black" points="1027.55,-122 1024.55,-126 1003.55,-126 1000.55,-122 912.45,-122 912.45,-86 1027.55,-86 1027.55,-122"/>
<text text-anchor="middle" x="970" y="-99.8" font-family="Times,serif" font-size="14.00">HomeComponent</text>
</g>
<!-- HomeComponent&#45;&gt;AppModule -->
<g id="edge5" class="edge">
<title>HomeComponent&#45;&gt;AppModule</title>
<path fill="none" stroke="black" d="M970,-122.24C970,-137.57 970,-157 970,-157 970,-157 865.81,-157 865.81,-157"/>
<polygon fill="black" stroke="black" points="865.81,-153.5 855.81,-157 865.81,-160.5 865.81,-153.5"/>
</g>
<!-- InputAddItemComponent -->
<g id="node7" class="node">
<title>InputAddItemComponent</title>
<polygon fill="#8dd3c7" stroke="black" points="894.15,-122 891.15,-126 870.15,-126 867.15,-122 733.85,-122 733.85,-86 894.15,-86 894.15,-122"/>
<text text-anchor="middle" x="814" y="-99.8" font-family="Times,serif" font-size="14.00">InputAddItemComponent</text>
</g>
<!-- InputAddItemComponent&#45;&gt;AppModule -->
<g id="edge6" class="edge">
<title>InputAddItemComponent&#45;&gt;AppModule</title>
<path fill="none" stroke="black" d="M814,-122.11C814,-122.11 814,-140.99 814,-140.99"/>
<polygon fill="black" stroke="black" points="810.5,-140.99 814,-150.99 817.5,-140.99 810.5,-140.99"/>
</g>
<!-- InputListItemComponent -->
<g id="node8" class="node">
<title>InputListItemComponent</title>
<polygon fill="#8dd3c7" stroke="black" points="716.32,-122 713.32,-126 692.32,-126 689.32,-122 557.68,-122 557.68,-86 716.32,-86 716.32,-122"/>
<text text-anchor="middle" x="637" y="-99.8" font-family="Times,serif" font-size="14.00">InputListItemComponent</text>
</g>
<!-- InputListItemComponent&#45;&gt;AppModule -->
<g id="edge7" class="edge">
<title>InputListItemComponent&#45;&gt;AppModule</title>
<path fill="none" stroke="black" d="M637,-122.24C637,-137.57 637,-157 637,-157 637,-157 762.05,-157 762.05,-157"/>
<polygon fill="black" stroke="black" points="762.05,-160.5 772.05,-157 762.05,-153.5 762.05,-160.5"/>
</g>
<!-- ListComponent -->
<g id="node9" class="node">
<title>ListComponent</title>
<polygon fill="#8dd3c7" stroke="black" points="539.61,-122 536.61,-126 515.61,-126 512.61,-122 436.39,-122 436.39,-86 539.61,-86 539.61,-122"/>
<text text-anchor="middle" x="488" y="-99.8" font-family="Times,serif" font-size="14.00">ListComponent</text>
</g>
<!-- ListComponent&#45;&gt;AppModule -->
<g id="edge8" class="edge">
<title>ListComponent&#45;&gt;AppModule</title>
<path fill="none" stroke="black" d="M488,-122.02C488,-139.37 488,-163 488,-163 488,-163 762.05,-163 762.05,-163"/>
<polygon fill="black" stroke="black" points="762.05,-166.5 772.05,-163 762.05,-159.5 762.05,-166.5"/>
</g>
<!-- LoginComponent -->
<g id="node10" class="node">
<title>LoginComponent</title>
<polygon fill="#8dd3c7" stroke="black" points="418.28,-122 415.28,-126 394.28,-126 391.28,-122 303.72,-122 303.72,-86 418.28,-86 418.28,-122"/>
<text text-anchor="middle" x="361" y="-99.8" font-family="Times,serif" font-size="14.00">LoginComponent</text>
</g>
<!-- LoginComponent&#45;&gt;AppModule -->
<g id="edge9" class="edge">
<title>LoginComponent&#45;&gt;AppModule</title>
<path fill="none" stroke="black" d="M361,-122.11C361,-141.34 361,-169 361,-169 361,-169 762.19,-169 762.19,-169"/>
<polygon fill="black" stroke="black" points="762.19,-172.5 772.19,-169 762.19,-165.5 762.19,-172.5"/>
</g>
<!-- LogoutComponent -->
<g id="node11" class="node">
<title>LogoutComponent</title>
<polygon fill="#8dd3c7" stroke="black" points="285.78,-122 282.78,-126 261.78,-126 258.78,-122 164.22,-122 164.22,-86 285.78,-86 285.78,-122"/>
<text text-anchor="middle" x="225" y="-99.8" font-family="Times,serif" font-size="14.00">LogoutComponent</text>
</g>
<!-- LogoutComponent&#45;&gt;AppModule -->
<g id="edge10" class="edge">
<title>LogoutComponent&#45;&gt;AppModule</title>
<path fill="none" stroke="black" d="M225,-122.28C225,-143.32 225,-175 225,-175 225,-175 762.11,-175 762.11,-175"/>
<polygon fill="black" stroke="black" points="762.11,-178.5 772.11,-175 762.11,-171.5 762.11,-178.5"/>
</g>
<!-- NavbarComponent -->
<g id="node12" class="node">
<title>NavbarComponent</title>
<polygon fill="#8dd3c7" stroke="black" points="146.03,-122 143.03,-126 122.03,-126 119.03,-122 23.97,-122 23.97,-86 146.03,-86 146.03,-122"/>
<text text-anchor="middle" x="85" y="-99.8" font-family="Times,serif" font-size="14.00">NavbarComponent</text>
</g>
<!-- NavbarComponent&#45;&gt;AppModule -->
<g id="edge11" class="edge">
<title>NavbarComponent&#45;&gt;AppModule</title>
<path fill="none" stroke="black" d="M85,-122.25C85,-145.02 85,-181 85,-181 85,-181 762.19,-181 762.19,-181"/>
<polygon fill="black" stroke="black" points="762.19,-184.5 772.19,-181 762.19,-177.5 762.19,-184.5"/>
</g>
</g>
</svg>
